<?xml version="1.0" encoding="utf-8"?>
<!-- Generator: Adobe Illustrator 14.0.0, SVG Export Plug-In . SVG Version: 6.00 Build 43363)  -->
<!DOCTYPE svg PUBLIC "-//W3C//DTD SVG 1.1//EN" "http://www.w3.org/Graphics/SVG/1.1/DTD/svg11.dtd">
<svg version="1.1" id="Cardinals" xmlns="http://www.w3.org/2000/svg" xmlns:xlink="http://www.w3.org/1999/xlink" x="0px" y="0px"
	 width="400px" height="300px" viewBox="-57.705 -18.905 400 300" enable-background="new -57.705 -18.905 400 300"
	 xml:space="preserve">
<g>
	<path fill="#050505" d="M34.717,31.984c0,0,1.008,14.778,12.826,28.889l-7.881-2.86c0,0,6.005,15.433,19.796,27.457l-8.227-2.817
		c0,0,7.502,22.672,28.432,37.891c0,0-0.754,16.918,16.218,36.316c0,0,16.492,16.482,16.605,28.116c0,0,36.602,6.299,70.594,45.227
		c0,0,17.226-41.181,66.503-35.061c0,0,4.346-23.226-20.187-45.019c0,0-2.286-50.84-69.286-71.96l-57.335-13.18
		C102.776,64.983,59.654,51.532,34.717,31.984z"/>
	<path fill="#B0063A" d="M48.891,48.388c0,0,8.525,19.925,40.065,36.366L59.609,74.736c0,0,8.941,14.643,40.409,31.487L70.56,96.284
		c0,0,13.506,21.935,38.736,32.893l-16.56-0.914c0,0-0.247,9.438,23.61,35.901c0,0,7.504,10.716,5.223,12.398
		c0,0,14.913,3.698,38.494,23.556c0,0,27.706-8.513,0.515-58.544c0,0-12.36-23.564-27.98-40.718c0,0,28.557-0.924,58.384,28.832
		c0,0,14.597,18.602,31.801,15.024c0,0,0.335-38.324-59.658-58.459L96.815,70.765C96.815,70.767,69.156,61.771,48.891,48.388z"/>
	<path fill="none" stroke="#000000" d="M48.891,48.388c0,0,8.525,19.925,40.065,36.366L59.609,74.736
		c0,0,8.941,14.643,40.409,31.487L70.56,96.284c0,0,13.506,21.935,38.736,32.893l-16.56-0.914c0,0-0.247,9.438,23.61,35.901
		c0,0,7.504,10.716,5.223,12.398c0,0,14.913,3.698,38.494,23.556c0,0,27.706-8.513,0.515-58.544c0,0-12.36-23.564-27.98-40.718
		c0,0,28.557-0.924,58.384,28.832c0,0,14.597,18.602,31.801,15.024c0,0,0.335-38.324-59.658-58.459L96.815,70.765
		C96.815,70.767,69.156,61.771,48.891,48.388z"/>
	<path fill="#FFFFFF" d="M169.729,122.613c0,0-2.283,32.595,25.766,37.459c0,0,10.216-0.357,14.301-11.221l-3.785-0.885
		c0,0-5.378,10.769-14.699,6.274c0,0-5.834-1.468-9.734-12.402l9.455,0.732C191.032,142.571,175.867,133.117,169.729,122.613z"/>
	<path fill="none" stroke="#000000" d="M169.729,122.613c0,0-2.283,32.595,25.766,37.459c0,0,10.216-0.357,14.301-11.221
		l-3.785-0.885c0,0-5.378,10.769-14.699,6.274c0,0-5.834-1.468-9.734-12.402l9.455,0.732
		C191.032,142.571,175.867,133.117,169.729,122.613z"/>
	<path fill="#FDBD12" d="M198.653,175.723c0,0,29.252,0.793,46.321,15.682c0,0-24.306-4.515-43.246,7.004
		C201.727,198.409,205.349,187.198,198.653,175.723z"/>
	<path fill="none" stroke="#000000" d="M198.653,175.723c0,0,29.252,0.793,46.321,15.682c0,0-24.306-4.515-43.246,7.004
		C201.727,198.409,205.349,187.198,198.653,175.723z"/>
	<path fill="#FDBD12" d="M200.455,168.156c0,0,31.148,5.701,45.143,20.869c-0.684-17.747-24.155-36.93-22.265-35.286
		C223.332,153.737,215.644,166.085,200.455,168.156z"/>
	<path fill="none" stroke="#000000" d="M200.455,168.156c0,0,31.148,5.701,45.143,20.869c-0.684-17.747-24.155-36.93-22.265-35.286
		C223.332,153.737,215.644,166.085,200.455,168.156z"/>
</g>
</svg>
